<?xml version="1.0" encoding="UTF-8" standalone="no"?>
<!DOCTYPE svg PUBLIC "-//W3C//DTD SVG 1.1//EN" "http://www.w3.org/Graphics/SVG/1.1/DTD/svg11.dtd">
<svg width="100%" height="100%" viewBox="0 0 128 128" version="1.1" xmlns="http://www.w3.org/2000/svg" xmlns:xlink="http://www.w3.org/1999/xlink" xml:space="preserve" xmlns:serif="http://www.serif.com/" style="fill-rule:evenodd;clip-rule:evenodd;stroke-linejoin:round;stroke-miterlimit:2;">
    <g transform="matrix(1,0,0,1,0,-600)">
        <g transform="matrix(0.285714,0,0,0.294931,8.28571,448.995)">
            <rect id="logo-color" x="-29" y="512" width="448" height="434" style="fill:none;"/>
            <clipPath id="_clip1">
                <rect id="logo-color1" serif:id="logo-color" x="-29" y="512" width="448" height="434"/>
            </clipPath>
            <g clip-path="url(#_clip1)">
                <g transform="matrix(1.09375,0,0,1.05957,-102.118,-2633.86)">
                    <path d="M242.396,3378.6L108.648,3378.6L108.648,3345.17L133.726,3345.17L108.648,3320.09L133.726,3295.01L100.288,3295.01L100.288,3378.6L66.851,3378.6L66.851,3261.57L359.426,3261.57L300.911,3320.09L359.426,3378.6L250.755,3378.6L250.755,3345.17L275.833,3345.17L250.755,3320.09L275.833,3295.01L242.396,3295.01L242.396,3378.6ZM208.959,3269.93L158.803,3320.09L208.959,3370.24L208.959,3269.93Z"/>
                </g>
                <g transform="matrix(1.09375,0,0,1.05957,-102.118,-2633.86)">
                    <path d="M359.426,3144.55L359.426,3010.8L392.863,3010.8L392.863,3035.87L417.941,3010.8L443.019,3035.87L443.019,3002.44L359.426,3002.44L359.426,2969L476.456,2969L476.456,3261.57L417.941,3203.06L359.426,3261.57L359.426,3152.9L392.863,3152.9L392.863,3177.98L417.941,3152.9L443.019,3177.98L443.019,3144.55L359.426,3144.55ZM468.096,3111.11L417.941,3060.95L367.785,3111.11L468.096,3111.11Z"/>
                </g>
                <g transform="matrix(0.586272,-0.567948,0.586272,0.567948,-1829.44,-765.893)">
                    <rect x="375" y="3280" width="71" height="71" style="fill:rgb(252,107,71);"/>
                </g>
            </g>
        </g>
    </g>
</svg>
