<?xml version="1.0" encoding="UTF-8" standalone="no"?>
<!DOCTYPE svg PUBLIC "-//W3C//DTD SVG 1.1//EN" "http://www.w3.org/Graphics/SVG/1.1/DTD/svg11.dtd">
<svg width="100%" height="100%" viewBox="0 0 1095 114" version="1.1" xmlns="http://www.w3.org/2000/svg" xmlns:xlink="http://www.w3.org/1999/xlink" xml:space="preserve" xmlns:serif="http://www.serif.com/" style="fill-rule:evenodd;clip-rule:evenodd;stroke-linejoin:round;stroke-miterlimit:2;">
    <g transform="matrix(1,0,0,1,0,-2784)">
        <g transform="matrix(2.18398,0,0,0.235729,0,2114.76)">
            <rect id="logotext" x="0" y="2839" width="501" height="481" style="fill:none;"/>
            <clipPath id="_clip1">
                <rect id="logotext1" serif:id="logotext" x="0" y="2839" width="501" height="481"/>
            </clipPath>
            <g clip-path="url(#_clip1)">
                <g transform="matrix(0.126749,0,0,1.1743,440.61,-647.509)">
                    <path d="M242.396,3378.6L108.648,3378.6L108.648,3345.17L133.726,3345.17L108.648,3320.09L133.726,3295.01L100.288,3295.01L100.288,3378.6L66.851,3378.6L66.851,3261.57L359.426,3261.57L300.911,3320.09L359.426,3378.6L250.755,3378.6L250.755,3345.17L275.833,3345.17L250.755,3320.09L275.833,3295.01L242.396,3295.01L242.396,3378.6ZM208.959,3269.93L158.803,3320.09L208.959,3370.24L208.959,3269.93Z"/>
                </g>
                <g transform="matrix(0.126749,0,0,1.1743,440.61,-647.509)">
                    <path d="M359.426,3144.55L359.426,3010.8L392.863,3010.8L392.863,3035.87L417.941,3010.8L443.019,3035.87L443.019,3002.44L359.426,3002.44L359.426,2969L476.456,2969L476.456,3261.57L417.941,3203.06L359.426,3261.57L359.426,3152.9L392.863,3152.9L392.863,3177.98L417.941,3152.9L443.019,3177.98L443.019,3144.55L359.426,3144.55ZM468.096,3111.11L417.941,3060.95L367.785,3111.11L468.096,3111.11Z"/>
                </g>
                <g transform="matrix(0.0679401,-0.62945,0.0679401,0.62945,240.438,1422.73)">
                    <rect x="375" y="3280" width="71" height="71" style="fill:rgb(252,107,71);"/>
                </g>
                <g transform="matrix(0.674248,0,0,6.24675,-1623.83,-2153.3)">
                    <path d="M2408.36,876.184L2408.36,799.184L2419.16,799.184L2419.16,818.184L2454.36,818.184C2456.76,818.184 2458.94,818.784 2460.91,819.984C2462.88,821.184 2464.44,822.751 2465.61,824.684C2466.78,826.617 2467.36,828.784 2467.36,831.184L2467.36,863.184C2467.36,865.584 2466.78,867.751 2465.61,869.684C2464.44,871.617 2462.88,873.184 2460.91,874.384C2458.94,875.584 2456.76,876.184 2454.36,876.184L2408.36,876.184ZM2421.66,865.384L2454.06,865.384C2454.72,865.384 2455.31,865.134 2455.81,864.634C2456.31,864.134 2456.56,863.551 2456.56,862.884L2456.56,831.484C2456.56,830.817 2456.31,830.234 2455.81,829.734C2455.31,829.234 2454.72,828.984 2454.06,828.984L2421.66,828.984C2420.99,828.984 2420.41,829.234 2419.91,829.734C2419.41,830.234 2419.16,830.817 2419.16,831.484L2419.16,862.884C2419.16,863.551 2419.41,864.134 2419.91,864.634C2420.41,865.134 2420.99,865.384 2421.66,865.384Z" style="fill-rule:nonzero;"/>
                    <path d="M2487.46,876.184C2485.06,876.184 2482.88,875.584 2480.91,874.384C2478.94,873.184 2477.38,871.617 2476.21,869.684C2475.04,867.751 2474.46,865.584 2474.46,863.184L2474.46,841.784L2522.56,841.784L2522.56,831.484C2522.56,830.817 2522.33,830.234 2521.86,829.734C2521.39,829.234 2520.83,828.984 2520.16,828.984L2474.46,828.984L2474.46,818.184L2520.46,818.184C2522.86,818.184 2525.04,818.767 2527.01,819.934C2528.97,821.101 2530.54,822.684 2531.71,824.684C2532.88,826.684 2533.46,828.851 2533.46,831.184L2533.46,876.184L2487.46,876.184ZM2487.76,865.384L2522.56,865.384L2522.56,851.884L2485.26,851.884L2485.26,862.884C2485.26,863.551 2485.51,864.134 2486.01,864.634C2486.51,865.134 2487.09,865.384 2487.76,865.384Z" style="fill-rule:nonzero;"/>
                    <path d="M2554.86,876.184C2552.46,876.184 2550.29,875.584 2548.36,874.384C2546.43,873.184 2544.86,871.617 2543.66,869.684C2542.46,867.751 2541.86,865.584 2541.86,863.184L2541.86,831.184C2541.86,828.784 2542.46,826.617 2543.66,824.684C2544.86,822.751 2546.43,821.184 2548.36,819.984C2550.29,818.784 2552.46,818.184 2554.86,818.184L2600.66,818.184L2600.66,828.984L2555.16,828.984C2554.49,828.984 2553.91,829.234 2553.41,829.734C2552.91,830.234 2552.66,830.817 2552.66,831.484L2552.66,862.884C2552.66,863.551 2552.91,864.134 2553.41,864.634C2553.91,865.134 2554.49,865.384 2555.16,865.384L2600.86,865.384L2600.86,876.184L2554.86,876.184Z" style="fill-rule:nonzero;"/>
                    <path d="M2623.96,876.184C2621.56,876.184 2619.39,875.584 2617.46,874.384C2615.53,873.184 2613.96,871.617 2612.76,869.684C2611.56,867.751 2610.96,865.584 2610.96,863.184L2610.96,831.184C2610.96,828.784 2611.56,826.617 2612.76,824.684C2613.96,822.751 2615.53,821.184 2617.46,819.984C2619.39,818.784 2621.56,818.184 2623.96,818.184L2656.96,818.184C2659.36,818.184 2661.54,818.767 2663.51,819.934C2665.47,821.101 2667.04,822.684 2668.21,824.684C2669.38,826.684 2669.96,828.851 2669.96,831.184L2669.96,863.184C2669.96,865.584 2669.38,867.751 2668.21,869.684C2667.04,871.617 2665.47,873.184 2663.51,874.384C2661.54,875.584 2659.36,876.184 2656.96,876.184L2623.96,876.184ZM2624.26,865.384L2656.66,865.384C2657.33,865.384 2657.89,865.134 2658.36,864.634C2658.83,864.134 2659.06,863.551 2659.06,862.884L2659.06,831.484C2659.06,830.817 2658.83,830.234 2658.36,829.734C2657.89,829.234 2657.33,828.984 2656.66,828.984L2624.26,828.984C2623.59,828.984 2623.01,829.234 2622.51,829.734C2622.01,830.234 2621.76,830.817 2621.76,831.484L2621.76,862.884C2621.76,863.551 2622.01,864.134 2622.51,864.634C2623.01,865.134 2623.59,865.384 2624.26,865.384Z" style="fill-rule:nonzero;"/>
                    <path d="M2678.46,876.184L2678.46,818.184L2724.46,818.184C2726.86,818.184 2729.04,818.784 2731.01,819.984C2732.97,821.184 2734.54,822.751 2735.71,824.684C2736.88,826.617 2737.46,828.784 2737.46,831.184L2737.46,876.184L2726.66,876.184L2726.66,831.484C2726.66,830.817 2726.41,830.234 2725.91,829.734C2725.41,829.234 2724.83,828.984 2724.16,828.984L2691.76,828.984C2691.09,828.984 2690.51,829.234 2690.01,829.734C2689.51,830.234 2689.26,830.817 2689.26,831.484L2689.26,876.184L2678.46,876.184Z" style="fill-rule:nonzero;"/>
                    <path d="M2745.76,876.184L2745.76,799.184L2756.56,799.184L2756.56,818.184L2791.76,818.184C2794.16,818.184 2796.34,818.784 2798.31,819.984C2800.28,821.184 2801.84,822.751 2803.01,824.684C2804.18,826.617 2804.76,828.784 2804.76,831.184L2804.76,863.184C2804.76,865.584 2804.18,867.751 2803.01,869.684C2801.84,871.617 2800.28,873.184 2798.31,874.384C2796.34,875.584 2794.16,876.184 2791.76,876.184L2745.76,876.184ZM2759.06,865.384L2791.46,865.384C2792.12,865.384 2792.71,865.134 2793.21,864.634C2793.71,864.134 2793.96,863.551 2793.96,862.884L2793.96,831.484C2793.96,830.817 2793.71,830.234 2793.21,829.734C2792.71,829.234 2792.12,828.984 2791.46,828.984L2759.06,828.984C2758.39,828.984 2757.81,829.234 2757.31,829.734C2756.81,830.234 2756.56,830.817 2756.56,831.484L2756.56,862.884C2756.56,863.551 2756.81,864.134 2757.31,864.634C2757.81,865.134 2758.39,865.384 2759.06,865.384Z" style="fill-rule:nonzero;"/>
                    <path d="M2825.16,876.184C2822.76,876.184 2820.59,875.584 2818.66,874.384C2816.72,873.184 2815.16,871.617 2813.96,869.684C2812.76,867.751 2812.16,865.584 2812.16,863.184L2812.16,831.184C2812.16,828.784 2812.76,826.617 2813.96,824.684C2815.16,822.751 2816.72,821.184 2818.66,819.984C2820.59,818.784 2822.76,818.184 2825.16,818.184L2858.16,818.184C2860.56,818.184 2862.74,818.767 2864.71,819.934C2866.68,821.101 2868.24,822.684 2869.41,824.684C2870.58,826.684 2871.16,828.851 2871.16,831.184L2871.16,863.184C2871.16,865.584 2870.58,867.751 2869.41,869.684C2868.24,871.617 2866.68,873.184 2864.71,874.384C2862.74,875.584 2860.56,876.184 2858.16,876.184L2825.16,876.184ZM2825.46,865.384L2857.86,865.384C2858.53,865.384 2859.09,865.134 2859.56,864.634C2860.03,864.134 2860.26,863.551 2860.26,862.884L2860.26,831.484C2860.26,830.817 2860.03,830.234 2859.56,829.734C2859.09,829.234 2858.53,828.984 2857.86,828.984L2825.46,828.984C2824.79,828.984 2824.21,829.234 2823.71,829.734C2823.21,830.234 2822.96,830.817 2822.96,831.484L2822.96,862.884C2822.96,863.551 2823.21,864.134 2823.71,864.634C2824.21,865.134 2824.79,865.384 2825.46,865.384Z" style="fill-rule:nonzero;"/>
                    <path d="M2892.86,876.184C2890.46,876.184 2888.28,875.584 2886.31,874.384C2884.34,873.184 2882.78,871.617 2881.61,869.684C2880.44,867.751 2879.86,865.584 2879.86,863.184L2879.86,841.784L2927.96,841.784L2927.96,831.484C2927.96,830.817 2927.72,830.234 2927.26,829.734C2926.79,829.234 2926.22,828.984 2925.56,828.984L2879.86,828.984L2879.86,818.184L2925.86,818.184C2928.26,818.184 2930.44,818.767 2932.41,819.934C2934.38,821.101 2935.94,822.684 2937.11,824.684C2938.28,826.684 2938.86,828.851 2938.86,831.184L2938.86,876.184L2892.86,876.184ZM2893.16,865.384L2927.96,865.384L2927.96,851.884L2890.66,851.884L2890.66,862.884C2890.66,863.551 2890.91,864.134 2891.41,864.634C2891.91,865.134 2892.49,865.384 2893.16,865.384Z" style="fill-rule:nonzero;"/>
                    <path d="M2947.96,876.184L2947.96,831.184C2947.96,828.784 2948.56,826.617 2949.76,824.684C2950.96,822.751 2952.54,821.184 2954.51,819.984C2956.47,818.784 2958.62,818.184 2960.96,818.184L2993.36,818.184L2993.36,828.984L2961.26,828.984C2960.59,828.984 2960.01,829.234 2959.51,829.734C2959.01,830.234 2958.76,830.817 2958.76,831.484L2958.76,876.184L2947.96,876.184Z" style="fill-rule:nonzero;"/>
                    <path d="M3010.86,876.184C3008.46,876.184 3006.28,875.601 3004.31,874.434C3002.34,873.267 3000.78,871.684 2999.61,869.684C2998.44,867.684 2997.86,865.517 2997.86,863.184L2997.86,831.184C2997.86,828.784 2998.44,826.617 2999.61,824.684C3000.78,822.751 3002.34,821.184 3004.31,819.984C3006.28,818.784 3008.46,818.184 3010.86,818.184L3046.06,818.184L3046.06,799.184L3056.86,799.184L3056.86,876.184L3010.86,876.184ZM3011.26,865.384L3043.66,865.384C3044.33,865.384 3044.89,865.134 3045.36,864.634C3045.83,864.134 3046.06,863.551 3046.06,862.884L3046.06,831.484C3046.06,830.817 3045.83,830.234 3045.36,829.734C3044.89,829.234 3044.33,828.984 3043.66,828.984L3011.26,828.984C3010.59,828.984 3010.01,829.234 3009.51,829.734C3009.01,830.234 3008.76,830.817 3008.76,831.484L3008.76,862.884C3008.76,863.551 3009.01,864.134 3009.51,864.634C3010.01,865.134 3010.59,865.384 3011.26,865.384Z" style="fill-rule:nonzero;"/>
                </g>
            </g>
        </g>
    </g>
</svg>
